<svg xmlns="http://www.w3.org/2000/svg" viewBox="0 0 246 106"><g id="Layer_2" data-name="Layer 2"><g id="Layer_1-2" data-name="Layer 1"><polygon points="120 106 120 76 106 76 106 86 96 86 96 96 66 96 66 106 0 106 0 80 16 80 16 100 50 100 50 90 80 90 80 80 90 80 90 70 100 70 100 60 110 60 110 50 120 50 120 40 130 40 130 30 140 30 140 6 76 6 76 16 66 16 66 26 46 26 46 36 36 36 36 70 60 70 60 60 70 60 70 50 80 50 80 30 96 30 96 46 86 46 86 56 76 56 76 66 66 66 66 76 30 76 30 66 20 66 20 40 30 40 30 30 40 30 40 20 50 20 50 10 70 10 70 0 156 0 156 30 170 30 170 20 180 20 180 10 190 10 190 0 246 0 246 26 240 26 240 6 216 6 216 16 196 16 196 26 176 26 176 36 156 36 156 46 146 46 146 56 136 56 136 100 170 100 170 90 190 90 190 80 200 80 200 56 176 56 176 66 160 66 160 60 170 60 170 50 190 50 190 40 206 40 206 50 216 50 216 76 206 76 206 86 196 86 196 96 186 96 186 106 120 106"/></g></g></svg>